<?xml version="1.0" standalone="no"?>
<!DOCTYPE svg PUBLIC "-//W3C//DTD SVG 1.1//EN" "http://www.w3.org/Graphics/SVG/1.1/DTD/svg11.dtd">

<svg width="135" height="50" viewBox="0 0 135 50" preserveAspectRatio="none" 
  xmlns="http://www.w3.org/2000/svg"
  xmlns:xlink="http://www.w3.org/1999/xlink">


<polyline points="0.0, 41.06179599756357 0.7988165680473372, 50.0 1.5976331360946745, 48.28916342303422 2.396449704142012, 45.40016349954477 3.195266272189349, 45.86068925946435 3.994082840236686, 45.29336698843199 4.792899408284024, 46.09568724168429 5.591715976331361, 45.025162885795126 6.390532544378698, 44.287340344076206 7.189349112426036, 43.990231018221266 7.988165680473372, 43.68756841206463 8.78698224852071, 43.065444425783106 9.585798816568047, 43.28039191986374 10.384615384615385, 43.327298947388016 11.183431952662723, 43.18998257703511 11.982248520710058, 43.386800221748636 12.781065088757396, 43.14763522234197 13.579881656804734, 43.06191160208492 14.378698224852071, 43.41457319028043 15.177514792899409, 43.620443317286316 15.976331360946745, 43.00327155278969 16.775147928994084, 42.91623192709851 17.57396449704142, 42.585038726582695 18.37278106508876, 42.70454802387493 19.171597633136095, 42.69857728789469 19.970414201183434, 42.829308616219734 20.76923076923077, 42.53343385659907 21.56804733727811, 42.707380443612394 22.366863905325445, 42.766842830515714 23.16568047337278, 42.97308134035109 23.964497041420117, 44.91244578884624 24.763313609467456, 44.07859219624892 25.562130177514792, 43.71032797973031 26.36094674556213, 42.75639355166616 27.159763313609467, 41.954449692393176 27.958579881656807, 42.075165402233836 28.757396449704142, 42.37122229449886 29.55621301775148, 42.27589650752928 30.355029585798817, 41.97043475861309 31.153846153846157, 41.97650299567326 31.95266272189349, 41.37746882898858 32.751479289940825, 41.391941771702214 33.55029585798817, 39.624224876977614 34.349112426035504, 36.212929762070964 35.14792899408284, 37.12821255677893 35.94674556213018, 37.847300232571136 36.74556213017752, 38.46959659281232 37.54437869822485, 37.22785544282973 38.34319526627219, 37.303908487013594 39.142011834319526, 36.66856960959933 39.94082840236687, 38.00479801021661 40.7396449704142, 35.53865698249518 41.53846153846154, 35.94181507339573 42.337278106508876, 33.07868069831382 43.13609467455622, 33.02094884342757 43.93491124260355, 34.63071188219771 44.73372781065089, 33.4543264064956 45.532544378698226, 32.49488546282008 46.33136094674556, 28.93985032715095 47.1301775147929, 28.076960941226393 47.928994082840234, 27.99206846510077 48.72781065088758, 29.935008859417472 49.52662721893491, 28.04880443035137 50.32544378698225, 27.30383367541046 51.124260355029584, 26.850487193119598 51.92307692307693, 27.353714742807938 52.72189349112426, 27.451101427974127 53.5207100591716, 28.00509768365419 54.319526627218934, 28.058722276245767 55.11834319526627, 32.05805073363483 55.91715976331361, 35.427214729559694 56.71597633136094, 35.22266100001878 57.514792899408285, 35.55474970981187 58.31360946745562, 35.667486682798014 59.11242603550296, 34.92303476590677 59.91124260355029, 33.25064652750535 60.710059171597635, 32.021310905187626 61.50887573964497, 33.039499244921544 62.307692307692314, 32.825705473401804 63.10650887573964, 34.56287574184238 63.90532544378698, 33.170283697240755 64.70414201183432, 33.829737148751065 65.50295857988165, 34.01656519186592 66.30177514792899, 32.484372756815034 67.10059171597634, 31.852612184150175 67.89940828402366, 32.07561293296742 68.69822485207101, 32.54989386182297 69.49704142011834, 31.992627827883624 70.29585798816568, 31.004947277051322 71.09467455621302, 31.928683840359867 71.89349112426036, 32.12172471397779 72.6923076923077, 32.17065656209551 73.49112426035504, 32.51731039781858 74.28994082840237, 32.77849515692185 75.0887573964497, 31.14728179990893 75.88757396449704, 29.531981600176078 76.68639053254438, 32.09085238755699 77.48520710059172, 32.61612711384241 78.28402366863905, 34.04737757052339 79.0828402366864, 34.82375286813246 79.88165680473374, 35.37720213583153 80.68047337278107, 36.570444055454374 81.4792899408284, 36.280868594318015 82.27810650887574, 34.52571275660723 83.07692307692308, 33.01159874399263 83.87573964497041, 32.61810346665548 84.67455621301775, 31.988760871535092 85.4733727810651, 31.175003735149236 86.27218934911244, 31.57080275591356 87.07100591715975, 32.59832445929928 87.8698224852071, 31.781663071897604 88.66863905325444, 31.96554423629544 89.46745562130178, 32.05008172531908 90.26627218934911, 31.347357787037282 91.06508875739645, 27.711701097793355 91.8639053254438, 28.748016325140117 92.66272189349112, 29.219587300822898 93.46153846153845, 30.175452827210904 94.2603550295858, 30.106464330014894 95.05917159763314, 29.252388248837175 95.85798816568047, 27.528179593787648 96.65680473372781, 29.332626324270556 97.45562130177515, 29.157582565790186 98.2544378698225, 28.924860918287948 99.05325443786982, 29.247409293117855 99.85207100591715, 28.884058315860926 100.6508875739645, 29.26952290073073 101.44970414201183, 29.102509953878673 102.24852071005917, 29.478068093961834 103.04733727810651, 28.92058956514118 103.84615384615385, 29.56793947661674 104.64497041420118, 29.14714126575507 105.44378698224853, 34.66623968489636 106.24260355029585, 34.48865499326595 107.0414201183432, 35.24182040647431 107.84023668639053, 34.62790043352357 108.63905325443787, 33.46010356517113 109.43786982248521, 32.87767247113466 110.23668639053254, 32.64584246571342 111.03550295857988, 33.021058998776546 111.83431952662723, 31.61971842120041 112.63313609467457, 32.244766027778695 113.43195266272188, 32.18542599513407 114.23076923076923, 32.01497821849021 115.02958579881657, 32.88045516419474 115.82840236686391, 32.92917851437655 116.62721893491124, 34.159240812582205 117.42603550295858, 32.91179823824104 118.22485207100593, 31.678545709025713 119.02366863905324, 30.03913363364374 119.82248520710058, 29.385136313758625 120.62130177514793, 28.306391371330715 121.42011834319527, 26.524768573329826 122.2189349112426, 26.29510058142481 123.01775147928994, 24.30971189874322 123.81656804733728, 24.84743777837101 124.61538461538463, 26.57777541770015 125.41420118343194, 27.366509480408684 126.21301775147928, 28.843903802019806 127.01183431952663, 26.9984705990759 127.81065088757396, 25.47302280066444 128.60946745562129, 26.201601142198218 129.40828402366864, 26.508039744601923 130.20710059171597, 26.504908587431096 131.0059171597633, 24.48738434477635 131.80473372781066, 22.16539074046566 132.60355029585799, 18.937282995623757 133.40236686390534, 13.208795349326632 134.20118343195267, 0.0" fill="none" stroke="#32ca5b" stroke-width="1.25"/>

</svg>